<svg version="1.2" baseProfile="tiny-ps" xmlns="http://www.w3.org/2000/svg" viewBox="0 0 1486 1590" width="1486" height="1590">
	<title>dd_logo_v_rgb-svg</title>
	<style>
		tspan { white-space:pre }
		.shp0 { fill: #632ca6 } 
	</style>
	<g id="Layer">
		<g id="Layer">
			<path id="Layer" fill-rule="evenodd" class="shp0" d="M1485.19 1407.02L702.2 1501.31L685.13 1379.84L637.82 1386.71C642 1454.37 626.12 1518.64 596.25 1549.36C561.24 1585.3 510.37 1594.62 456.78 1587.33C420.67 1582.42 393.87 1556.35 374.04 1524.45C448.31 1576.86 540.22 1552.64 571.7 1508.79C615.98 1447.11 604.61 1388.91 588.16 1334.52C575.31 1291.97 540.42 1221.27 497.15 1193.9C453.05 1165.97 410.12 1160.71 373.76 1164.5L377.12 1160.59C429.41 1150.22 484.05 1155.96 523.67 1181.43C568.6 1210.3 609.69 1259.86 631.18 1335.77C655.55 1332.31 659.03 1330.73 681.29 1327.55L631.06 936.45L737.32 924.75C687.45 892.72 635.89 846.82 613.4 821.43C609.57 818.57 610.2 805.92 610.2 805.92C630.56 821.78 714.98 882.11 804.23 909.63C835.69 919.35 883.99 923.03 925.92 899.26C957.95 881.08 996.49 849.42 1019.5 816.82L1023.69 824.13C1023.59 829.01 1012.97 852.6 1007.61 862.07C1017.3 867.68 1024.59 869.18 1035.41 872.19L1109.36 860.67C1135.83 817.79 1154.86 748.65 1134.63 682.89C1123.03 645.14 1062.75 570.01 1058.42 565.86C1043.22 551.31 1060.93 495.03 1030.87 433.65C999.12 368.71 916.43 301 880.44 271.52C891.08 279.26 956.27 305.51 986.62 342.19C989.48 338.41 990.68 318.7 993.26 313.72C967.16 279.56 965.14 218.73 965.14 202.45C965.14 172.67 949.98 138.87 949.98 138.87C949.98 138.87 976.13 159.5 982.84 195.09C990.8 237.26 1007.81 270.44 1030.27 298.52C1072.8 351.51 1111.16 378.71 1130.62 359.15C1153.84 335.58 1107.11 230.4 1047.33 171.6C977.63 103.13 959.35 111.97 918.45 126.57C885.8 138.21 868.14 230.98 783.02 229.1C768.59 227.47 731.46 226.54 713.12 226.69C722.69 213.35 730.85 203.03 730.85 203.03C730.85 203.03 702.3 214.5 678.01 229.07L676.11 226.22C684.35 208.89 693.19 197.99 693.19 197.99C693.19 197.99 670.37 211.69 649.56 228.1C653.4 207.49 667.69 194.36 667.69 194.36C667.69 194.36 638.87 199.57 602.16 239.97C560.43 251.36 550.37 258.9 517.16 273.62C463.09 261.83 437.57 242.8 413.28 207.74C394.77 180.96 361.84 176.88 328.13 190.71C279.12 211.07 217.04 238.84 217.04 238.84C217.04 238.84 237.25 238.06 258.34 238.99C229.51 249.93 201.69 264.96 201.69 264.96C201.69 264.96 215.24 264.48 231.92 264.76C220.4 274.33 213.98 278.93 203.04 286.17C176.64 305.33 155.23 327.49 155.23 327.49C155.23 327.49 173.16 319.3 189.27 314.72C178.02 340.54 155.71 359.5 159.82 391.08C163.75 419.95 199.11 479.33 244.81 515.75C248.74 518.93 311.18 576.65 358.21 552.93C405.24 529.29 423.8 508.16 431.54 475.83C440.63 438.64 435.44 410.54 416.06 329.9C409.65 303.28 392.97 248.46 384.88 222.29L386.71 220.96C402.06 253.44 441.43 339.04 457.33 396.51C482.1 486.17 474.31 531.65 462.99 548.33C428.86 598.64 341.23 605.25 301.44 577.38C295.35 673.94 316.91 716.44 324.17 737.86C320.54 762.47 336.47 808.15 336.47 808.15C336.47 808.15 338.3 787.37 345.56 776.42C347.54 800.89 359.81 829.87 359.81 829.87C359.81 829.87 359.06 811.93 364.7 796.48C372.58 809.86 378.42 813.04 385.83 823.05C393.29 849.12 408.3 868.26 408.3 868.26C408.3 868.26 405.82 854.26 407.19 839.68C443.73 874.79 449.97 925.98 453.65 965.33C463.89 1073.51 283.1 1159.54 248.02 1227.23C221.47 1267.3 205.59 1330.76 250.55 1368.1C282.95 1395.05 301.94 1416.11 314.13 1433.51L161.47 1455.68L0.79 151.86L1304.92 0.65L1381.46 791.42L1421.3 783.84L1485.19 1407.02ZM731.38 1462.41L1422.85 1337.8L1381.68 839.48L978.08 912.68C968.09 925.58 943.35 948.2 931.48 954.08C880.46 979.78 846.03 972.34 816.25 964.6C797.14 959.74 786.05 957.01 770.12 949.85L671.6 963.4L731.38 1462.41ZM1344.67 918.09L1380.33 1301.73L766.34 1414.88L760.56 1360.64L873.48 1188.29L1001.72 1225.78L1111.99 1041.58L1244.17 1128.78L1344.67 918.09ZM943.15 440.34C942.1 439.99 940.77 439.69 939.29 439.49C947.45 429.37 971.95 426.89 989.4 434.98C1035.66 456.52 1029.65 497.44 1030.9 521.5C1031.25 528.39 1031.12 533.05 1030.55 536.26C1024.16 532.8 1014.04 530.27 998.02 530.97C993.28 531.2 988.7 531.7 984.29 532.45C967.21 523.28 957.02 505.38 947.73 486.37L945.58 481.51L944.75 479.41L944.45 478.48C939.29 462.25 942.75 458.97 944.93 453.99C947.15 448.88 955.52 444.62 943.15 440.34ZM1078.41 724.71C1066.41 752.31 1049.46 782.73 1030.25 785.26C998.97 789.39 969.32 772.44 935.48 747.17C923.41 738.13 916 716.14 932.33 703.52C941.29 696.51 982.29 683.36 1020.26 678.88C1040.19 676.5 1068.54 675.17 1074.6 678.53C1086.62 685.19 1086.62 705.7 1078.41 724.71ZM748.18 533.4C750.34 559.85 741.7 574.45 734.29 582.74C718.78 584.76 699.9 588.57 677.21 595.93C663.76 600.29 652.09 605.15 641.85 609.98C639.17 608.23 636.27 606.1 632.76 603.1C597.67 572.72 598.85 519.13 635.49 494.13C685.18 460.25 749.19 473.6 738.49 483.76C718.08 503.2 745.23 497.51 748.18 533.4Z" />
		</g>
	</g>
</svg>